<?xml version="1.0" encoding="UTF-8" standalone="no"?>
<svg
   xmlns:dc="http://purl.org/dc/elements/1.1/"
   xmlns:cc="http://creativecommons.org/ns#"
   xmlns:rdf="http://www.w3.org/1999/02/22-rdf-syntax-ns#"
   xmlns:svg="http://www.w3.org/2000/svg"
   xmlns="http://www.w3.org/2000/svg"
   xmlns:sodipodi="http://sodipodi.sourceforge.net/DTD/sodipodi-0.dtd"
   xmlns:inkscape="http://www.inkscape.org/namespaces/inkscape"
   width="60"
   height="48"
   viewBox="0 0 15.875 12.7"
   version="1.1"
   id="svg16"
   inkscape:version="1.0.1 (3bc2e813f5, 2020-09-07)"
   sodipodi:docname="rslogo.svg"
   inkscape:export-filename="C:\Work\rhyme-game\client\public\rslogo2.png"
   inkscape:export-xdpi="504"
   inkscape:export-ydpi="504">
  <defs
     id="defs10">
    <inkscape:path-effect
       effect="join_type"
       id="path-effect1299"
       is_visible="true"
       lpeversion="1"
       linecap_type="round"
       line_width="0.14348827"
       linejoin_type="extrp_arc"
       miter_limit="100"
       attempt_force_join="true" />
    <inkscape:path-effect
       effect="join_type"
       id="path-effect1297"
       is_visible="true"
       lpeversion="1"
       linecap_type="round"
       line_width="0.14348827"
       linejoin_type="extrp_arc"
       miter_limit="100"
       attempt_force_join="true" />
    <inkscape:path-effect
       effect="join_type"
       id="path-effect1295"
       is_visible="true"
       lpeversion="1"
       linecap_type="round"
       line_width="0.14348827"
       linejoin_type="extrp_arc"
       miter_limit="100"
       attempt_force_join="true" />
    <inkscape:path-effect
       effect="join_type"
       id="path-effect1293"
       is_visible="true"
       lpeversion="1"
       linecap_type="round"
       line_width="0.14348827"
       linejoin_type="extrp_arc"
       miter_limit="100"
       attempt_force_join="true" />
    <inkscape:path-effect
       effect="join_type"
       id="path-effect1291"
       is_visible="true"
       lpeversion="1"
       linecap_type="round"
       line_width="0.14348827"
       linejoin_type="extrp_arc"
       miter_limit="100"
       attempt_force_join="true" />
    <inkscape:path-effect
       effect="join_type"
       id="path-effect1289"
       is_visible="true"
       lpeversion="1"
       linecap_type="round"
       line_width="0.14348827"
       linejoin_type="extrp_arc"
       miter_limit="100"
       attempt_force_join="true" />
    <inkscape:path-effect
       effect="join_type"
       id="path-effect1287"
       is_visible="true"
       lpeversion="1"
       linecap_type="round"
       line_width="0.14348827"
       linejoin_type="extrp_arc"
       miter_limit="100"
       attempt_force_join="true" />
    <inkscape:path-effect
       effect="join_type"
       id="path-effect1089"
       is_visible="true"
       lpeversion="1"
       linecap_type="butt"
       line_width="0.023914713"
       linejoin_type="extrp_arc"
       miter_limit="100"
       attempt_force_join="true" />
    <inkscape:path-effect
       effect="join_type"
       id="path-effect1085"
       is_visible="true"
       lpeversion="1"
       linecap_type="butt"
       line_width="0.023914713"
       linejoin_type="extrp_arc"
       miter_limit="100"
       attempt_force_join="true" />
    <inkscape:path-effect
       effect="join_type"
       id="path-effect1081"
       is_visible="true"
       lpeversion="1"
       linecap_type="butt"
       line_width="0.023914713"
       linejoin_type="extrp_arc"
       miter_limit="100"
       attempt_force_join="true" />
    <inkscape:path-effect
       effect="join_type"
       id="path-effect1077"
       is_visible="true"
       lpeversion="1"
       linecap_type="butt"
       line_width="0.023914713"
       linejoin_type="extrp_arc"
       miter_limit="100"
       attempt_force_join="true" />
    <inkscape:path-effect
       effect="join_type"
       id="path-effect1073"
       is_visible="true"
       lpeversion="1"
       linecap_type="butt"
       line_width="0.023914713"
       linejoin_type="extrp_arc"
       miter_limit="100"
       attempt_force_join="true" />
    <inkscape:path-effect
       effect="join_type"
       id="path-effect1071"
       is_visible="true"
       lpeversion="1"
       linecap_type="butt"
       line_width="0.023914713"
       linejoin_type="extrp_arc"
       miter_limit="100"
       attempt_force_join="true" />
    <inkscape:path-effect
       effect="join_type"
       id="path-effect1065"
       is_visible="true"
       lpeversion="1"
       linecap_type="butt"
       line_width="0.023914713"
       linejoin_type="extrp_arc"
       miter_limit="100"
       attempt_force_join="true" />
    <inkscape:path-effect
       effect="join_type"
       id="path-effect1063"
       is_visible="true"
       lpeversion="1"
       linecap_type="butt"
       line_width="0.023914713"
       linejoin_type="extrp_arc"
       miter_limit="100"
       attempt_force_join="true" />
    <inkscape:path-effect
       effect="join_type"
       id="path-effect1061"
       is_visible="true"
       lpeversion="1"
       linecap_type="butt"
       line_width="0.023914713"
       linejoin_type="extrp_arc"
       miter_limit="100"
       attempt_force_join="true" />
    <inkscape:path-effect
       effect="join_type"
       id="path-effect1059"
       is_visible="true"
       lpeversion="1"
       linecap_type="butt"
       line_width="0.06"
       linejoin_type="extrp_arc"
       miter_limit="100"
       attempt_force_join="true" />
    <inkscape:path-effect
       effect="join_type"
       id="path-effect1057"
       is_visible="true"
       lpeversion="1"
       linecap_type="butt"
       line_width="0.06"
       linejoin_type="extrp_arc"
       miter_limit="100"
       attempt_force_join="true" />
    <inkscape:path-effect
       effect="join_type"
       id="path-effect1036"
       is_visible="true"
       lpeversion="1"
       linecap_type="butt"
       line_width="0.023914713"
       linejoin_type="extrp_arc"
       miter_limit="100"
       attempt_force_join="true" />
    <inkscape:path-effect
       effect="join_type"
       id="path-effect1034"
       is_visible="true"
       lpeversion="1"
       linecap_type="butt"
       line_width="0.023914713"
       linejoin_type="extrp_arc"
       miter_limit="100"
       attempt_force_join="true" />
    <inkscape:path-effect
       effect="join_type"
       id="path-effect1032"
       is_visible="true"
       lpeversion="1"
       linecap_type="butt"
       line_width="0.023914713"
       linejoin_type="extrp_arc"
       miter_limit="100"
       attempt_force_join="true" />
    <inkscape:path-effect
       effect="join_type"
       id="path-effect1030"
       is_visible="true"
       lpeversion="1"
       linecap_type="butt"
       line_width="0.023914713"
       linejoin_type="extrp_arc"
       miter_limit="100"
       attempt_force_join="true" />
    <inkscape:path-effect
       effect="join_type"
       id="path-effect1028"
       is_visible="true"
       lpeversion="1"
       linecap_type="butt"
       line_width="0.023914713"
       linejoin_type="extrp_arc"
       miter_limit="100"
       attempt_force_join="true" />
    <inkscape:path-effect
       effect="join_type"
       id="path-effect989"
       is_visible="true"
       lpeversion="1"
       linecap_type="butt"
       line_width="0.023914713"
       linejoin_type="extrp_arc"
       miter_limit="100"
       attempt_force_join="true" />
    <inkscape:path-effect
       effect="join_type"
       id="path-effect987"
       is_visible="true"
       lpeversion="1"
       linecap_type="butt"
       line_width="0.023914713"
       linejoin_type="extrp_arc"
       miter_limit="100"
       attempt_force_join="true" />
    <inkscape:path-effect
       effect="join_type"
       id="path-effect981"
       is_visible="true"
       lpeversion="1"
       linecap_type="butt"
       line_width="0.023914713"
       linejoin_type="extrp_arc"
       miter_limit="100"
       attempt_force_join="true" />
    <inkscape:path-effect
       effect="join_type"
       id="path-effect979"
       is_visible="true"
       lpeversion="1"
       linecap_type="butt"
       line_width="0.023914713"
       linejoin_type="extrp_arc"
       miter_limit="100"
       attempt_force_join="true" />
    <inkscape:path-effect
       effect="join_type"
       id="path-effect977"
       is_visible="true"
       lpeversion="1"
       linecap_type="butt"
       line_width="0.023914713"
       linejoin_type="extrp_arc"
       miter_limit="100"
       attempt_force_join="true" />
    <inkscape:path-effect
       effect="join_type"
       id="path-effect946"
       is_visible="true"
       lpeversion="1"
       linecap_type="round"
       line_width="0.11957356"
       linejoin_type="extrp_arc"
       miter_limit="100"
       attempt_force_join="true" />
    <inkscape:path-effect
       effect="join_type"
       id="path-effect942"
       is_visible="true"
       lpeversion="1"
       linecap_type="butt"
       line_width="0.06"
       linejoin_type="extrp_arc"
       miter_limit="100"
       attempt_force_join="true" />
    <inkscape:path-effect
       effect="join_type"
       id="path-effect937"
       is_visible="true"
       lpeversion="1"
       linecap_type="round"
       line_width="0.14348827"
       linejoin_type="extrp_arc"
       miter_limit="100"
       attempt_force_join="true" />
    <inkscape:path-effect
       effect="join_type"
       id="path-effect935"
       is_visible="true"
       lpeversion="1"
       linecap_type="round"
       line_width="0.14348827"
       linejoin_type="extrp_arc"
       miter_limit="100"
       attempt_force_join="true" />
    <inkscape:path-effect
       effect="join_type"
       id="path-effect933"
       is_visible="true"
       lpeversion="1"
       linecap_type="round"
       line_width="0.14348827"
       linejoin_type="extrp_arc"
       miter_limit="100"
       attempt_force_join="true" />
    <inkscape:path-effect
       effect="join_type"
       id="path-effect931"
       is_visible="true"
       lpeversion="1"
       linecap_type="round"
       line_width="0.14348827"
       linejoin_type="extrp_arc"
       miter_limit="100"
       attempt_force_join="true" />
    <inkscape:path-effect
       effect="join_type"
       id="path-effect929"
       is_visible="true"
       lpeversion="1"
       linecap_type="round"
       line_width="0.14348827"
       linejoin_type="extrp_arc"
       miter_limit="100"
       attempt_force_join="true" />
    <inkscape:path-effect
       effect="join_type"
       id="path-effect927"
       is_visible="true"
       lpeversion="1"
       linecap_type="round"
       line_width="0.14348827"
       linejoin_type="extrp_arc"
       miter_limit="100"
       attempt_force_join="true" />
    <inkscape:path-effect
       effect="join_type"
       id="path-effect925"
       is_visible="true"
       lpeversion="1"
       linecap_type="round"
       line_width="0.14348827"
       linejoin_type="extrp_arc"
       miter_limit="100"
       attempt_force_join="true" />
    <inkscape:path-effect
       effect="join_type"
       id="path-effect869"
       is_visible="true"
       lpeversion="1"
       linecap_type="round"
       line_width="0.36"
       linejoin_type="extrp_arc"
       miter_limit="100"
       attempt_force_join="true" />
    <inkscape:path-effect
       effect="join_type"
       id="path-effect865"
       is_visible="true"
       lpeversion="1"
       linecap_type="round"
       line_width="0.36"
       linejoin_type="extrp_arc"
       miter_limit="100"
       attempt_force_join="true" />
    <inkscape:path-effect
       effect="join_type"
       id="path-effect861"
       is_visible="true"
       lpeversion="1"
       linecap_type="round"
       line_width="0.36"
       linejoin_type="extrp_arc"
       miter_limit="100"
       attempt_force_join="true" />
    <inkscape:path-effect
       effect="join_type"
       id="path-effect857"
       is_visible="true"
       lpeversion="1"
       linecap_type="round"
       line_width="0.36"
       linejoin_type="extrp_arc"
       miter_limit="100"
       attempt_force_join="true" />
    <inkscape:path-effect
       effect="join_type"
       id="path-effect853"
       is_visible="true"
       lpeversion="1"
       linecap_type="round"
       line_width="0.36"
       linejoin_type="extrp_arc"
       miter_limit="100"
       attempt_force_join="true" />
    <inkscape:path-effect
       effect="join_type"
       id="path-effect851"
       is_visible="true"
       lpeversion="1"
       linecap_type="round"
       line_width="0.36"
       linejoin_type="extrp_arc"
       miter_limit="100"
       attempt_force_join="true" />
    <inkscape:path-effect
       effect="join_type"
       id="path-effect849"
       is_visible="true"
       lpeversion="1"
       linecap_type="round"
       line_width="0.36"
       linejoin_type="extrp_arc"
       miter_limit="100"
       attempt_force_join="true" />
  </defs>
  <sodipodi:namedview
     id="base"
     pagecolor="#42275a"
     bordercolor="#666666"
     borderopacity="1.0"
     inkscape:pageopacity="0"
     inkscape:pageshadow="2"
     inkscape:zoom="13.12"
     inkscape:cx="23.877714"
     inkscape:cy="26.10378"
     inkscape:document-units="mm"
     inkscape:current-layer="layer10"
     inkscape:document-rotation="0"
     showgrid="false"
     units="px"
     inkscape:window-width="1920"
     inkscape:window-height="1057"
     inkscape:window-x="1912"
     inkscape:window-y="-8"
     inkscape:window-maximized="1" />
  <metadata
     id="metadata13">
    <rdf:RDF>
      <cc:Work
         rdf:about="">
        <dc:format>image/svg+xml</dc:format>
        <dc:type
           rdf:resource="http://purl.org/dc/dcmitype/StillImage" />
        <dc:title></dc:title>
      </cc:Work>
    </rdf:RDF>
  </metadata>
  <g
     inkscape:groupmode="layer"
     id="layer10"
     inkscape:label="Слой 8"
     style="display:inline"
     sodipodi:insensitive="true">
    <rect
       style="fill:#42275a;fill-opacity:1;stroke:#000000;stroke-width:0.1;stroke-miterlimit:4;stroke-dasharray:none;stroke-dashoffset:0;stroke-opacity:1"
       id="rect1325"
       width="17.383448"
       height="14.156821"
       x="-0.78649008"
       y="-0.60499239" />
  </g>
  <g
     inkscape:groupmode="layer"
     id="layer6"
     inkscape:label="Слой 6"
     style="display:inline"
     sodipodi:insensitive="true">
    <path
       id="path1138"
       style="fill:none;fill-opacity:1;stroke:#ffd700;stroke-width:0.36;stroke-miterlimit:4;stroke-dasharray:0.36, 0.36;stroke-dashoffset:0;stroke-opacity:1"
       d="M 12.476567,6.6034498 A 4.502501,4.502501 0 0 1 7.9740634,11.105951 4.502501,4.502501 0 0 1 3.4715624,6.6034498 4.502501,4.502501 0 0 1 7.9740634,2.1009488 4.502501,4.502501 0 0 1 12.476567,6.6034498 Z" />
  </g>
  <g
     inkscape:groupmode="layer"
     id="layer8"
     inkscape:label="Слой 5"
     style="display:inline"
     sodipodi:insensitive="true">
    <path
       style="display:inline;fill:#000000;fill-rule:nonzero;stroke:none;stroke-width:0.0279302;stroke-linecap:butt;stroke-linejoin:miter;stroke-miterlimit:4;stroke-dasharray:none;stroke-opacity:1"
       d="m 7.4402557,1.4064733 c 0.00123,-0.039289 0.015534,-0.093494 0.078648,-0.091965 0.058683,0.00142 0.065798,0.043647 0.068148,0.086625 a 0.07174414,0.07174414 0 1 0 0.1432742,-0.00783 C 7.7259163,1.3126663 7.6867433,1.1750348 7.5223742,1.171062 7.3612415,1.1671596 7.2998711,1.3047936 7.2968373,1.4019971 a 0.07174414,0.07174414 0 1 0 0.1434184,0.00448 z"
       id="path843"
       sodipodi:nodetypes="czc"
       inkscape:path-effect="#path-effect1299"
       inkscape:original-d="m 7.3685465,1.4042352 c 0.00213,-0.068246 0.039969,-0.1641655 0.1520907,-0.1614501 0.1121216,0.00271 0.13466,0.092414 0.1380513,0.1544306" />
    <path
       style="display:inline;fill:#000000;fill-rule:nonzero;stroke:none;stroke-width:0.0279302;stroke-linecap:butt;stroke-linejoin:miter;stroke-miterlimit:4;stroke-dasharray:none;stroke-opacity:1"
       d="m 7.9619633,1.6123682 c 0.053276,0.056928 0.1166966,0.1025655 0.2117103,0.102276 0.091838,-2.778e-4 0.1578434,-0.037608 0.2179295,-0.090368 A 0.07174414,0.07174414 0 1 0 8.2969285,1.5164543 c -0.041882,0.036775 -0.080327,0.054571 -0.1236905,0.054702 -0.040185,1.225e-4 -0.068255,-0.015958 -0.1065085,-0.056834 a 0.07174414,0.07174414 0 1 0 -0.1047662,0.098046 z"
       id="path845"
       sodipodi:nodetypes="czc"
       inkscape:path-effect="#path-effect1297"
       inkscape:original-d="m 8.0143464,1.5633454 c 0.045765,0.048902 0.09151,0.079761 0.1591102,0.079555 0.0676,-2.045e-4 0.1198253,-0.027768 0.1708092,-0.072535" />
    <path
       style="display:inline;fill:#000000;fill-rule:nonzero;stroke:none;stroke-width:0.0279302;stroke-linecap:butt;stroke-linejoin:miter;stroke-miterlimit:4;stroke-dasharray:none;stroke-opacity:1"
       d="m 8.7739135,1.4102527 c 0.0024,-0.046801 0.013815,-0.091577 0.075143,-0.091046 0.064307,5.541e-4 0.07778,0.046257 0.081175,0.090515 a 0.07174414,0.07174414 0 1 0 0.143068,-0.010973 C 9.0661374,1.3053724 9.0144181,1.1771378 8.850295,1.1757235 8.6843621,1.174288 8.6354246,1.309172 8.6306139,1.4028975 a 0.07174414,0.07174414 0 1 0 0.1432996,0.00736 z"
       id="path847"
       sodipodi:nodetypes="czc"
       inkscape:path-effect="#path-effect1295"
       inkscape:original-d="M 8.7022637,1.4065751 C 8.7058837,1.3360481 8.7354577,1.2464769 8.8496744,1.247465 8.9638908,1.2484492 8.996487,1.335418 9.0017651,1.4042353" />
    <path
       style="display:inline;fill:#000000;fill-rule:nonzero;stroke:none;stroke-width:0.0279302;stroke-linecap:butt;stroke-linejoin:miter;stroke-miterlimit:4;stroke-dasharray:none;stroke-opacity:1"
       d="M 7.3520757,2.2820937 H 9.207662 a 0.07174414,0.07174414 0 1 0 0,-0.1434882 H 7.3520757 a 0.07174414,0.07174414 0 1 0 0,0.1434882 z"
       id="path855"
       inkscape:path-effect="#path-effect1293"
       inkscape:original-d="M 7.3520757,2.2103496 H 9.207662" />
    <path
       style="display:inline;fill:#000000;fill-rule:nonzero;stroke:none;stroke-width:0.0279302;stroke-linecap:butt;stroke-linejoin:miter;stroke-miterlimit:4;stroke-dasharray:none;stroke-opacity:1"
       d="m 7.3463128,2.7085329 h 1.6884684 a 0.07174414,0.07174414 0 1 0 0,-0.1434882 H 7.3463128 a 0.07174414,0.07174414 0 1 0 0,0.1434882 z"
       id="path859"
       inkscape:path-effect="#path-effect1291"
       inkscape:original-d="M 7.3463128,2.6367888 H 9.0347812" />
    <path
       style="display:inline;fill:#000000;fill-rule:nonzero;stroke:none;stroke-width:0.0279302;stroke-linecap:butt;stroke-linejoin:miter;stroke-miterlimit:4;stroke-dasharray:none;stroke-opacity:1"
       d="m 7.3578382,3.1234466 h 1.769146 a 0.07174414,0.07174414 0 1 0 0,-0.1434882 h -1.769146 a 0.07174414,0.07174414 0 1 0 0,0.1434882 z"
       id="path863"
       inkscape:path-effect="#path-effect1289"
       inkscape:original-d="m 7.3578382,3.0517025 h 1.769146" />
    <path
       style="display:inline;fill:#000000;fill-rule:nonzero;stroke:none;stroke-width:0.0279302;stroke-linecap:butt;stroke-linejoin:miter;stroke-miterlimit:4;stroke-dasharray:none;stroke-opacity:1"
       d="m 7.3520757,3.8495456 h 0.4494898 a 0.07174414,0.07174414 0 1 0 0,-0.1434882 H 7.3520757 a 0.07174414,0.07174414 0 1 0 0,0.1434882 z"
       id="path867"
       inkscape:path-effect="#path-effect1287"
       inkscape:original-d="M 7.3520757,3.7778015 H 7.8015655" />
    <path
       style="display:inline;fill:#dededc;fill-opacity:1;stroke-width:0.00248047;stroke-miterlimit:4;stroke-dasharray:none"
       d="m 5.8613692,1.3075638 c -0.082852,-0.04101 -0.1147803,-0.1327206 -0.092055,-0.2644095 0.023672,-0.13718025 0.081568,-0.23519122 0.17435,-0.29515912 0.073761,-0.047674 0.1529791,-0.068837 0.262658,-0.070168 0.082734,-0.001 0.093375,0.00108 0.1517325,0.029719 0.1611902,0.079105 0.2509905,0.25762188 0.2509905,0.49895322 v 0.1094533 l -0.029267,0.00585 c -0.016098,0.00322 -0.1751962,0.00585 -0.3535533,0.00584 -0.3126874,-7e-6 -0.3257368,-7.249e-4 -0.3648552,-0.020089 z"
       id="path962" />
    <path
       style="display:inline;fill:#dededc;fill-opacity:1;stroke-width:0.00248047;stroke-miterlimit:4;stroke-dasharray:none"
       d="m 7.3757495,4.9187589 c 0.067204,-0.060423 0.096766,-0.1241787 0.142725,-0.3078212 0.042243,-0.1687915 0.073306,-0.230209 0.1387322,-0.2742999 l 0.031658,-0.021336 0.9703015,-0.00222 c 0.5336657,-0.00122 0.9923312,-0.00146 1.0192568,-5.292e-4 0.082235,0.00281 0.1800336,0.060202 0.2137608,0.1254226 0.020069,0.038809 0.017169,0.1445418 -0.00605,0.2205225 -0.018338,0.060011 -0.025829,0.070313 -0.1147477,0.1578576 -0.088372,0.087004 -0.1001167,0.095312 -0.1653527,0.1169683 l -0.070224,0.02331 -1.1046402,0.00318 -1.1046402,0.00318 z"
       id="path966" />
    <path
       style="display:inline;fill:#ececec;fill-opacity:1;stroke-width:0;stroke-miterlimit:4;stroke-dasharray:none"
       d="M 6.993037,4.9509294 C 6.8214153,4.9228968 6.7199719,4.8436556 6.6585175,4.6896221 6.6427671,4.6501457 6.6415607,4.5465341 6.6371423,2.8542612 L 6.6324623,1.0607388 6.6056263,0.9811313 C 6.5908663,0.9373472 6.5710463,0.8862753 6.5615803,0.86763903 6.5354193,0.81613073 6.4523255,0.73009483 6.3990589,0.69936213 l -0.047566,-0.027444 1.4565611,0.00241 1.4565612,0.00241 0.062167,0.030607 c 0.072389,0.03564 0.1520793,0.1110609 0.1986534,0.18801017 0.065712,0.1085687 0.060859,-0.025869 0.063861,1.7692426 l 0.00271,1.6225993 -0.9486453,-3e-7 c -0.9263601,-10e-8 -0.9494976,4.234e-4 -0.9849253,0.018508 -0.033767,0.017227 -0.080265,0.066804 -0.114401,0.1219762 -0.00796,0.012877 -0.030095,0.08874 -0.049171,0.1685816 -0.019077,0.079842 -0.04448,0.166746 -0.056452,0.1931199 -0.029597,0.0652 -0.084652,0.123814 -0.1409889,0.1501046 -0.040722,0.019005 -0.060263,0.021722 -0.1498505,0.020849 -0.056662,-5.556e-4 -0.1262021,-0.00479 -0.1545332,-0.00942 z M 7.8555171,3.8295929 c 0.023334,-0.028837 0.023176,-0.080309 -3.175e-4,-0.1038037 -0.027298,-0.027299 -0.059951,-0.03015 -0.3082247,-0.02691 l -0.227791,0.00297 -0.022588,0.026278 c -0.030354,0.035312 -0.028702,0.067389 0.00522,0.1013102 l 0.027808,0.027808 0.2540015,-0.00278 0.2540014,-0.00278 z M 9.1803425,3.1028766 c 0.014491,-0.014491 0.02299,-0.033689 0.02299,-0.051937 0,-0.018248 -0.0085,-0.037446 -0.02299,-0.051937 l -0.02299,-0.022989 H 8.2433513 7.3293489 l -0.022989,0.022989 c -0.01449,0.014491 -0.022989,0.033689 -0.022989,0.051937 0,0.018248 0.0085,0.037446 0.022989,0.051937 l 0.022989,0.022989 H 8.2433513 9.1573539 Z M 9.0866861,2.6907881 c 0.028438,-0.028438 0.029851,-0.068784 0.00357,-0.1021849 L 9.0708494,2.563926 H 8.1929239 c -0.8705709,0 -0.8780973,1.582e-4 -0.8984228,0.019097 -0.030472,0.028389 -0.028318,0.085781 0.00418,0.111343 0.024563,0.019322 0.028701,0.019411 0.8948454,0.019411 h 0.870172 z M 9.24979,2.2737885 C 9.273375,2.2611655 9.28901,2.2129015 9.278482,2.1852115 9.257536,2.1301185 9.314886,2.1331055 8.2780097,2.1331055 h -0.94925 l -0.028473,0.028473 c -0.023828,0.023828 -0.027525,0.033375 -0.022665,0.058535 0.00319,0.016535 0.01469,0.037439 0.025548,0.046453 0.018516,0.015373 0.078974,0.01639 0.9746153,0.01639 0.6049455,0 0.9611525,-0.00336 0.9720051,-0.00917 z M 8.2991684,1.689615 c 0.026433,-0.012101 0.063672,-0.03571 0.082754,-0.052464 0.027888,-0.024486 0.034694,-0.037042 0.034694,-0.064009 0,-0.074156 -0.068768,-0.099292 -0.1362982,-0.049818 C 8.2036492,1.579493 8.1433881,1.578531 8.078719,1.520104 8.033806,1.479528 7.995638,1.47618 7.9619567,1.509862 c -0.032322,0.032322 -0.030115,0.071265 0.00639,0.1128457 0.032991,0.037575 0.097653,0.07841 0.1423094,0.08987 0.046664,0.011976 0.1359454,0.0011 0.1885096,-0.022965 z M 8.7578807,1.4594218 c 0.00802,-0.00886 0.018261,-0.035774 0.022749,-0.059795 0.010827,-0.057958 0.024056,-0.071967 0.067955,-0.071967 0.042867,0 0.073778,0.025701 0.073778,0.061342 0,0.030549 0.022971,0.075171 0.042566,0.082691 0.022479,0.00863 0.059371,0.00705 0.078819,-0.00335 0.063201,-0.033824 0.021976,-0.2016236 -0.063721,-0.2593761 -0.04893,-0.032974 -0.1184804,-0.044748 -0.1845254,-0.031238 -0.047109,0.00964 -0.062408,0.018244 -0.098527,0.055432 -0.084385,0.086882 -0.093251,0.2344674 -0.014798,0.2463462 0.031826,0.00482 0.059913,-0.00264 0.075707,-0.020085 z m -1.3369686,-0.00228 c 0.011922,-0.0112 0.021676,-0.029536 0.021676,-0.040747 0,-0.033329 0.019476,-0.079112 0.037832,-0.088937 0.047319,-0.025324 0.1026527,0.010522 0.1026527,0.066498 0,0.065987 0.086288,0.1014159 0.1307543,0.053687 0.038336,-0.041147 0.014481,-0.1590911 -0.04446,-0.2198257 -0.070632,-0.072781 -0.2021701,-0.080578 -0.287896,-0.017065 -0.039382,0.029177 -0.079769,0.1075098 -0.085733,0.1662821 -0.00415,0.040819 -0.00158,0.053244 0.015427,0.074717 0.026156,0.033032 0.077634,0.035561 0.109747,0.00539 z"
       id="path968" />
  </g>
  <g
     inkscape:groupmode="layer"
     id="layer4"
     inkscape:label="Слой 4"
     style="display:inline"
     sodipodi:insensitive="true">
    <path
       style="fill:#d45500;fill-rule:nonzero;stroke:none;stroke-width:0.0279301;stroke-linecap:butt;stroke-linejoin:miter;stroke-miterlimit:4;stroke-dasharray:none;stroke-opacity:1"
       d="M 8.2880359,3.6953603 9.8014803,2.1792277 A 0.05978678,0.05978678 0 1 0 9.7168541,2.0947515 L 8.2034097,3.6108841 a 0.05978678,0.05978678 0 1 0 0.084626,0.084476 z"
       id="path944"
       inkscape:path-effect="#path-effect946"
       inkscape:original-d="M 8.2457228,3.6531222 9.7591672,2.1369896" />
    <path
       style="fill:#ff7f2a;stroke-width:0.00071196;stroke-miterlimit:4;stroke-dasharray:none"
       d="m 9.2215866,2.762506 c 0.3877833,-0.3889858 0.5898515,-0.5935179 0.592906,-0.6001359 0.00273,-0.00591 0.00465,-0.016666 0.00468,-0.026169 1.159e-4,-0.040383 -0.037287,-0.068401 -0.077151,-0.057797 -0.012122,0.00323 -0.044448,0.035014 -0.603805,0.5937755 L 8.547219,3.2625482 8.548999,3.2370112 c 0.00249,-0.035484 0.0093,-0.067223 0.029459,-0.1372474 0.1318853,-0.458005 0.3553088,-0.8069143 0.6789757,-1.0603221 0.2123969,-0.1662915 0.4736661,-0.2946172 0.7930143,-0.389498 0.03264,-0.0097 0.0748,-0.013682 0.10385,-0.00982 0.03553,0.00473 0.0558,0.014248 0.07456,0.03502 0.02243,0.024825 0.03115,0.057124 0.03122,0.1156568 4.6e-5,0.038749 -4.4e-5,0.039338 -0.01352,0.087366 C 10.103888,2.3865174 9.8302844,2.7690077 9.4208801,3.0324474 9.2431241,3.1468282 9.0461422,3.237759 8.8069565,3.3158469 8.7252082,3.3425354 8.6817268,3.3525654 8.6476574,3.3525907 l -0.014346,1.08e-5 z"
       id="path960" />
  </g>
  <g
     inkscape:groupmode="layer"
     id="layer7"
     inkscape:label="Слой 7"
     style="display:inline"
     sodipodi:insensitive="true">
    <path
       style="display:inline;fill:#fed2a4;fill-opacity:1;stroke-width:0.0172034"
       d="M 12.196531,6.1522228 C 12.061076,6.1365065 11.868339,6.0625544 11.700898,5.9620503 11.571181,5.8841893 11.385345,5.709858 11.308248,5.5937064 11.195319,5.4235711 11.177816,5.346579 11.152125,4.9069529 11.139407,4.6893292 11.128729,4.4635526 11.12839,4.4052274 l -5.98e-4,-0.1060456 0.08172,-0.050496 c 0.201106,-0.1242815 0.373349,-0.3679119 0.477201,-0.6750013 l 0.03781,-0.1118227 0.02733,0.052796 c 0.04405,0.085119 0.167949,0.2235682 0.279862,0.3127313 0.292942,0.2333937 0.74024,0.3752621 1.366927,0.4335463 0.108812,0.010124 0.246224,0.022818 0.305361,0.028217 l 0.107521,0.00982 -6.88e-4,0.071745 c -0.002,0.2143206 -0.05196,0.9245707 -0.06917,0.9835286 -0.09736,0.3334496 -0.393184,0.609736 -0.78172,0.7300954 -0.245975,0.076196 -0.498348,0.098637 -0.763418,0.067883 z"
       id="path1107" />
    <path
       style="display:inline;fill:#d9b1ee;fill-opacity:1;stroke-width:0.0172034"
       d="m 11.161876,8.1559195 c -0.03013,-0.00819 -0.02945,-0.1581814 0.002,-0.4328753 0.0605,-0.5293323 0.306968,-0.8698484 0.792308,-1.0946537 l 0.125481,-0.058122 0.06264,0.1317358 c 0.09141,0.1922394 0.177434,0.260762 0.327374,0.260762 0.132684,0 0.205602,-0.063676 0.299461,-0.261506 l 0.06285,-0.1324819 0.08447,0.033297 c 0.4367,0.1721319 0.690263,0.422328 0.780352,0.7699942 0.02462,0.095029 0.04987,0.3558809 0.06569,0.6788155 l 0.0057,0.1161235 -1.291076,-0.00198 c -0.710088,-0.00111 -1.302824,-0.0052 -1.317187,-0.0091 z"
       id="path1113" />
    <path
       style="display:inline;fill:#fed2a4;fill-opacity:1;stroke-width:0.0172034"
       d="m 12.345625,6.8844807 c -0.05363,-0.029108 -0.133164,-0.1399585 -0.172182,-0.2399773 -0.01477,-0.037849 -0.0325,-0.1520357 -0.03941,-0.2537513 l -0.01256,-0.1849372 0.247205,-1.055e-4 c 0.135962,-8.21e-5 0.288853,-0.00515 0.339759,-0.011263 l 0.09255,-0.011112 -0.01161,0.1875978 c -0.01066,0.1721729 -0.01733,0.1993585 -0.08102,0.3306149 -0.04902,0.1010174 -0.08543,0.152781 -0.123951,0.1762707 -0.06452,0.039343 -0.173036,0.042391 -0.238776,0.00671 z"
       id="path1117" />
    <path
       style="display:inline;fill:#596c76;fill-opacity:1;stroke-width:0.0172034"
       d="M 13.345199,6.7850379 C 13.245365,6.7093509 13.07164,6.6153487 12.938443,6.5649431 l -0.107521,-0.04069 V 6.3419663 6.1596795 l 0.09626,-0.021542 c 0.05295,-0.011851 0.174842,-0.060882 0.270889,-0.1089647 0.305833,-0.1531051 0.520387,-0.4090054 0.587517,-0.700735 0.02246,-0.097585 0.08094,-1.0450589 0.06575,-1.0651823 -0.003,-0.00395 -0.09638,-0.01354 -0.207551,-0.021326 -0.648122,-0.045388 -1.094946,-0.1484642 -1.406916,-0.3245536 -0.165469,-0.093398 -0.376788,-0.2950788 -0.454747,-0.4340092 -0.03054,-0.054406 -0.06057,-0.098909 -0.06677,-0.098897 -0.0062,1.37e-5 -0.02513,0.048399 -0.04209,0.1075221 -0.01696,0.059124 -0.07061,0.1883171 -0.119219,0.2870968 -0.06835,0.1388936 -0.114002,0.2056163 -0.201411,0.2943871 -0.06217,0.063133 -0.145405,0.1312278 -0.184976,0.1513216 -0.03957,0.020094 -0.07565,0.042522 -0.08017,0.049841 -0.01705,0.027586 0.04242,0.9787653 0.06746,1.0790154 0.07925,0.317251 0.413331,0.6417238 0.802089,0.7790148 l 0.134053,0.04734 -3.28e-4,0.1720344 -3.26e-4,0.1720348 -0.177222,0.082861 c -0.09747,0.045572 -0.217455,0.1133114 -0.26663,0.150529 -0.04917,0.037219 -0.10112,0.067671 -0.115436,0.067671 -0.102811,0 -0.351826,-0.2086523 -0.427695,-0.3583712 -0.09303,-0.1835704 -0.09346,-0.1898966 -0.106389,-1.5512126 -0.01096,-1.1541734 -0.0094,-1.2772083 0.01741,-1.4106844 0.09299,-0.4623288 0.410264,-0.8775456 0.827257,-1.0826377 0.240649,-0.1183589 0.361269,-0.145278 0.64513,-0.1439713 0.467372,0.00215 0.71666,0.1092674 1.027426,0.4414777 0.202328,0.2162897 0.353928,0.527109 0.399725,0.8195388 0.01455,0.092924 0.01869,0.4996796 0.01478,1.4536922 l -0.0054,1.3246674 -0.04638,0.098965 c -0.05676,0.1211058 -0.194608,0.271105 -0.330465,0.3595814 -0.05587,0.036386 -0.107014,0.066158 -0.113649,0.066158 -0.0067,0 -0.04608,-0.025789 -0.08765,-0.057306 z"
       id="path1123" />
    <path
       style="display:inline;fill:#fed2a4;fill-opacity:1;stroke-width:0.0172034"
       d="M 7.8635145,10.071903 C 7.440365,10.020009 7.0267982,9.6746768 6.9264624,9.289462 6.9050225,9.207148 6.900121,9.0654127 6.900121,8.5277693 c 0,-0.5860687 0.00297,-0.6594195 0.02634,-0.6504515 0.014488,0.00556 0.1015802,0.033118 0.1935391,0.061241 0.3344346,0.1022769 0.612771,0.1388082 1.0567991,0.1387049 0.4220773,-9.8e-5 0.6045361,-0.034038 0.9958374,-0.1852374 l 0.1306852,-0.050498 0.011242,0.335712 c 0.019682,0.5876897 0.014227,0.982432 -0.015137,1.095164 -0.088492,0.3397436 -0.3635091,0.6293496 -0.6961659,0.7330947 -0.2321275,0.07239 -0.4970223,0.09617 -0.7397488,0.06641 z"
       id="path1099" />
    <path
       style="display:inline;fill:#fed2a4;fill-opacity:1;stroke-width:0.0172034"
       d="M 8.0096804,10.815954 C 7.8655736,10.748583 7.7774973,10.54648 7.7774973,10.283178 v -0.169095 l 0.2623529,9.26e-4 c 0.1442939,5.29e-4 0.2952543,-0.005 0.3354674,-0.01218 l 0.073115,-0.0131 v 0.194147 0.194146 l -0.073115,0.144626 c -0.040213,0.07954 -0.093139,0.159279 -0.1176127,0.177192 -0.065418,0.04788 -0.1660903,0.05442 -0.2480245,0.01611 z"
       id="path1101" />
    <path
       style="display:inline;fill:#fed2a4;fill-opacity:1;stroke-width:0.0172034"
       d="M 6.6544122,8.8499129 C 6.407271,8.7917179 6.3046523,8.5755979 6.4183445,8.3527431 6.4634757,8.2642781 6.5473726,8.2165867 6.7064678,8.1889592 c 0.073191,-0.012711 0.1340517,-0.021735 0.1352469,-0.020056 0.00119,0.00167 0.00749,0.1598168 0.01399,0.3514207 L 6.8675219,8.868694 6.7935039,8.866974 C 6.7527937,8.8660171 6.6902031,8.858354 6.6544134,8.849922 Z"
       id="path1103" />
    <path
       style="display:inline;fill:#fed2a4;fill-opacity:1;stroke-width:0.0172034"
       d="M 9.360216,8.5074071 V 8.1583596 l 0.1181187,0.0099 c 0.2518106,0.021113 0.3936633,0.141633 0.4009824,0.340687 0.00708,0.1924645 -0.1399378,0.3188294 -0.3932153,0.3379851 l -0.1258858,0.00952 z"
       id="path1105" />
    <path
       style="display:inline;fill:#596c76;fill-opacity:1;stroke-width:0.0172034"
       d="m 6.470034,8.174205 c 0,-0.1661705 0.096484,-0.5110706 0.1874421,-0.6700491 0.02818,-0.049254 0.063047,-0.146195 0.077482,-0.2154258 0.067708,-0.3247295 0.2318895,-0.5033939 0.5083892,-0.5532346 0.061039,-0.011005 0.1500668,-0.035011 0.1978398,-0.053352 0.2404924,-0.092328 0.4315536,-0.1160963 1.0931588,-0.1359894 0.4502877,-0.013539 0.5289393,-0.020224 0.6965304,-0.059207 0.2168723,-0.050444 0.2645815,-0.053445 0.3109889,-0.019562 0.030228,0.022069 0.033914,0.050622 0.038877,0.3010567 0.00303,0.1521705 -0.00212,0.3666329 -0.01139,0.4765828 l -0.016875,0.199909 0.056478,0.079651 c 0.084401,0.1190319 0.1838716,0.3422263 0.1962337,0.4403169 0.006,0.047643 0.00853,0.1241803 0.0056,0.1700823 -0.00591,0.092818 0.00729,0.090335 -0.1581184,0.029742 C 9.6006305,8.145662 9.5146162,8.12981 9.4615281,8.129504 l -0.09652,-5.583e-4 -0.010848,-0.090319 c -0.00597,-0.049678 -0.010917,-0.1232224 -0.010999,-0.1634354 -1.031e-4,-0.051888 -0.0073,-0.073115 -0.02477,-0.073115 -0.013541,0 -0.1161166,0.034174 -0.2279456,0.075941 C 8.7074888,8.0210481 8.5179835,8.050118 8.0699541,8.0345587 7.5984389,8.0181835 7.3420538,7.9763938 7.0146256,7.8625422 6.9498678,7.8400253 6.8859999,7.8257787 6.8726971,7.8308828 c -0.018077,0.00693 -0.024187,0.045157 -0.024187,0.15131 v 0.1420293 l -0.1333269,0.021435 c -0.07333,0.01179 -0.1542316,0.032205 -0.1797821,0.045369 -0.061593,0.031731 -0.065367,0.030763 -0.065367,-0.01682 z"
       id="path1121" />
    <path
       style="display:inline;fill:#99e6fc;fill-opacity:1;stroke-width:0.0172034"
       d="m 6.8872179,12.073057 -0.090319,-0.0063 v -0.132878 c 0,-0.300277 0.055104,-0.57642 0.1581303,-0.792437 0.1172721,-0.245888 0.3720331,-0.471895 0.689673,-0.61183 0.091742,-0.04041 0.100244,-0.04147 0.1096579,-0.01369 0.084625,0.249803 0.2010191,0.365591 0.3675074,0.365591 0.1336353,0 0.2259245,-0.08104 0.3129798,-0.274851 0.027526,-0.06128 0.052543,-0.11391 0.055593,-0.11696 0.00305,-0.0031 0.062584,0.01963 0.1322987,0.05042 0.4407227,0.194593 0.6709539,0.443969 0.7440186,0.805887 0.014327,0.07097 0.030583,0.229665 0.036127,0.35267 0.00554,0.123004 0.013962,0.260418 0.018706,0.305361 l 0.00862,0.08172 -1.2263394,-0.0032 c -0.6744867,-0.0018 -1.2669826,-0.006 -1.3166577,-0.0095 z"
       id="path1135" />
    <path
       style="display:inline;fill:#d88a55;fill-opacity:1;stroke-width:0.0172034"
       d="M 3.3184838,6.1867656 C 2.8966989,6.1368493 2.4933749,5.8108454 2.3813721,5.4293053 2.3521554,5.3297802 2.3478318,5.24417 2.3420532,4.6508484 2.3384792,4.2842 2.3399522,3.984266 2.3453272,3.9843282 c 0.00537,6.22e-5 0.1153606,0.026766 0.2444228,0.059341 0.3812216,0.096219 0.5792928,0.1205948 0.969584,0.1193167 0.4614389,-0.00151 0.7922604,-0.053683 1.1026386,-0.1738927 l 0.087634,-0.033941 0.011247,0.4231134 C 4.7851322,5.2914752 4.7782424,5.3720368 4.655512,5.6099422 4.568018,5.7795459 4.3750849,5.9685476 4.2028016,6.0534302 3.9776183,6.1643753 3.6045682,6.220623 3.3184844,6.1867659 Z"
       id="path1091" />
    <path
       style="display:inline;fill:#d88a55;fill-opacity:1;stroke-width:0.0172034"
       d="M 2.1314447,4.9702963 C 1.9833531,4.9370394 1.9009969,4.8802647 1.8468333,4.7740953 1.8060389,4.6941303 1.8042218,4.6187568 1.84052,4.5122207 1.8849354,4.3818703 1.9910097,4.3190853 2.2217605,4.2865697 l 0.073115,-0.010303 v 0.3528746 0.3528738 l -0.064513,-0.00199 c -0.035482,-0.00112 -0.079996,-0.00547 -0.09892,-0.00972 z"
       id="path1093" />
    <path
       style="display:inline;fill:#d88a55;fill-opacity:1;stroke-width:0.0172034"
       d="M 4.8065836,4.620559 V 4.2716833 l 0.1224946,0.010271 c 0.1487914,0.012474 0.260199,0.064356 0.3317439,0.1544917 0.071535,0.090124 0.082216,0.2458134 0.023855,0.3477305 -0.054673,0.095478 -0.1956723,0.1650533 -0.3580339,0.1766695 l -0.1200597,0.00859 z"
       id="path1095" />
    <path
       style="display:inline;fill:#d88a55;fill-opacity:1;stroke-width:0.0172034"
       d="M 3.4544096,6.9285433 C 3.3732579,6.890643 3.3206037,6.8237212 3.2643652,6.6870086 3.2316299,6.6074309 3.2246103,6.5586417 3.2242734,6.4083629 l -4.101e-4,-0.1821762 0.2451494,0.00156 c 0.1348321,8.467e-4 0.2857925,-0.00454 0.3354675,-0.011954 l 0.090319,-0.013496 V 6.393152 c 0,0.1871173 -0.00135,0.1936758 -0.068708,0.3348133 C 3.7247909,6.9402074 3.610924,7.0016614 3.4544086,6.9285618 Z"
       id="path1097" />
    <path
       style="display:inline;fill:#d1f19e;fill-opacity:1;stroke-width:0.0172034"
       d="m 2.4497089,8.1862457 -0.2150434,-0.00534 0.010991,-0.2122053 c 0.012892,-0.2488907 0.022646,-0.3188184 0.06855,-0.491408 0.092678,-0.3484578 0.3369899,-0.6228945 0.7189553,-0.8076091 0.139629,-0.067523 0.1734848,-0.073536 0.173513,-0.030818 2.94e-5,0.042952 0.1010554,0.2289572 0.1483561,0.2731461 0.1179036,0.1101447 0.2906821,0.111502 0.4042574,0.00319 0.024819,-0.023672 0.07395,-0.1044662 0.1091813,-0.1795422 0.035231,-0.075077 0.069447,-0.1365028 0.076035,-0.1365028 0.00659,0 0.1045467,0.04595 0.2176846,0.1021101 0.2395673,0.1189178 0.3833583,0.2299822 0.4844252,0.3741727 0.1370263,0.1954935 0.1848606,0.3777353 0.2023602,0.7709683 0.00589,0.1324674 0.014602,0.2660087 0.019349,0.2967601 l 0.00863,0.055911 -1.1061021,-0.00374 C 3.162496,8.1932486 2.5679804,8.1891986 2.4497066,8.1862586 Z"
       id="path1111" />
    <path
       style="display:inline;fill:#433f43;fill-opacity:1;stroke-width:0.0172034"
       d="M 1.9072299,4.2129774 C 1.9778217,3.4385585 2.3544601,2.8393251 2.8944949,2.6422372 3.2081344,2.5277728 3.6633552,2.4966419 3.9378085,2.5708894 4.3006244,2.6690414 4.740711,2.9701315 4.9310605,3.2504337 5.1067827,3.5091962 5.2186298,3.8986593 5.2193256,4.2542021 l 1.381e-4,0.072148 -0.081716,-0.036357 C 5.0866209,4.2672461 5.0061209,4.2506805 4.9227039,4.2457406 l -0.1333267,-0.0079 V 4.0766191 c 3.4e-6,-0.1256629 -0.00523,-0.1612231 -0.023754,-0.1612231 -0.013068,0 -0.074186,0.018982 -0.1358233,0.042182 C 4.0503267,4.175691 3.207992,4.1832133 2.486095,3.976722 2.4067576,3.954029 2.331277,3.939516 2.3183612,3.944473 2.301138,3.951083 2.2948782,3.991418 2.2948782,4.0957819 v 0.1422977 l -0.1333269,0.019816 c -0.07333,0.010899 -0.1633016,0.035432 -0.1999375,0.05452 l -0.06661,0.034704 z"
       id="path1119" />
  </g>
</svg>
